# xmcd
#
# Track frame offsets:
#	150
#	12032
#	26393
#	40694
#	53025
#	66605
#	78037
#	92373
#	105773
#	117897
#	131074
#	175256
#	196713
#	206632
#	219451
#	229970
#	243693
#	255361
#	267980
#	280523
#	298454
#	316715
#	329250
#
# Disc length: 4545 seconds
# Revision: 0
# Processed by: cddbd v1.5.2PL0 Copyright (c) Steve Scherf et al.
# Submitted via: dBpowerAMP V12.0
#
DISCID=3911bf17
DTITLE=Various Artist - Duane Allman's Jukebox
DYEAR=2014
DGENRE=R&B
TTITLE0=Bobby Bland - Turn On Your Love Light
TTITLE1=Ray Charles - What'd I Say
TTITLE2=Wilson Pickett - In the Midnight Hour
TTITLE3=Howlin' Wolf - Spoonful
TTITLE4=B.B. King - Sweet Little Angel
TTITLE5=Blind Willie McTell - Statesboro Blues
TTITLE6=Blind Willie Johnson - Nobody's Faul But Mine
TTITLE7=Chuck Berry - No Money Down
TTITLE8=Muddy Waters - Trouble No More
TTITLE9=Little Walker - Mean Old World
TTITLE10=Miles Davis - Freddie Freeloader
TTITLE11=John Coltrane - Giant Steps
TTITLE12=John Lee Hooker - Dimples
TTITLE13=Muddy Waters - Hoochie Coochie Man
TTITLE14=Elmore James - Done Somebody Wrong
TTITLE15=T-Bone Walker - Stormy Monday
TTITLE16=Willie Cobbs - You Don't Love Me
TTITLE17=Sonny Boy Williamson II - One Way Out
TTITLE18=Jimmy Reed - Big Boss Man
TTITLE19=Hank Garland - Three-Four, the Blues
TTITLE20=Champion Jack Dupree - Goin' Down Slow
TTITLE21=King Curtis - Soul Twist
TTITLE22=Jimi Hendrix - Hear My Train a-Comin'
EXTD=
EXTT0=
EXTT1=
EXTT2=
EXTT3=
EXTT4=
EXTT5=
EXTT6=
EXTT7=
EXTT8=
EXTT9=
EXTT10=
EXTT11=
EXTT12=
EXTT13=
EXTT14=
EXTT15=
EXTT16=
EXTT17=
EXTT18=
EXTT19=
EXTT20=
EXTT21=
EXTT22=
PLAYORDER=
